<svg viewBox="0 0 46 46" xmlns="http://www.w3.org/2000/svg">
  <rect x="9" y="2" width="28" height="28" rx="5" fill="rgba(200,134,10,0.1)" stroke="#e8a832" stroke-width="1.6" />
  <polygon points="18,8 21.5,11.5 18,15 14.5,11.5" fill="none" stroke="#e8a832" stroke-width="1" opacity="0.7" />
  <polygon points="28,8 31.5,11.5 28,15 24.5,11.5" fill="none" stroke="#e8a832" stroke-width="1" opacity="0.7" />
  <polygon points="18,16 21.5,19.5 18,23 14.5,19.5" fill="none" stroke="#e8a832" stroke-width="1" opacity="0.7" />
  <polygon points="28,16 31.5,19.5 28,23 24.5,19.5" fill="none" stroke="#e8a832" stroke-width="1" opacity="0.7" />
  <circle cx="23" cy="11.5" r="1" fill="#e8a832" opacity="0.5" />
  <circle cx="23" cy="19.5" r="1" fill="#e8a832" opacity="0.5" />
  <rect x="5" y="8" width="4" height="14" rx="2" fill="none" stroke="#c8860a" stroke-width="1.4" />
  <rect x="37" y="8" width="4" height="14" rx="2" fill="none" stroke="#c8860a" stroke-width="1.4" />
  <rect x="5" y="32" width="36" height="11" rx="4" fill="rgba(200,134,10,0.1)" stroke="#e8a832" stroke-width="1.6" />
  <line x1="9" y1="37.5" x2="37" y2="37.5" stroke="#e8a832" stroke-width="0.9" stroke-dasharray="3,2.5" opacity="0.6" />
  <line x1="9" y1="30" x2="5" y2="32" stroke="#c8860a" stroke-width="1.4" />
  <line x1="37" y1="30" x2="41" y2="32" stroke="#c8860a" stroke-width="1.4" />
  <rect x="13" y="2" width="20" height="2" rx="1" fill="#e8a832" opacity="0.6" />
</svg>
