<svg xmlns="http://www.w3.org/2000/svg" viewBox="0 0 46 46" role="img" aria-labelledby="brandLogoTitle">
  <title id="brandLogoTitle">Shadhin Motor logo</title>
  <rect x="9" y="2" width="28" height="28" rx="5" fill="rgba(245,158,11,0.12)" stroke="#f59e0b" stroke-width="1.8"/>
  <polygon points="18,8 21.5,11.5 18,15 14.5,11.5" fill="none" stroke="#f59e0b" stroke-width="1" opacity="0.8"/>
  <polygon points="28,8 31.5,11.5 28,15 24.5,11.5" fill="none" stroke="#f59e0b" stroke-width="1" opacity="0.8"/>
  <polygon points="18,16 21.5,19.5 18,23 14.5,19.5" fill="none" stroke="#f59e0b" stroke-width="1" opacity="0.8"/>
  <polygon points="28,16 31.5,19.5 28,23 24.5,19.5" fill="none" stroke="#f59e0b" stroke-width="1" opacity="0.8"/>
  <circle cx="23" cy="11.5" r="1.1" fill="#f59e0b"/>
  <circle cx="23" cy="19.5" r="1.1" fill="#f59e0b"/>
  <rect x="5" y="8" width="4" height="14" rx="2" fill="none" stroke="#d97706" stroke-width="1.4"/>
  <rect x="37" y="8" width="4" height="14" rx="2" fill="none" stroke="#d97706" stroke-width="1.4"/>
  <rect x="5" y="32" width="36" height="11" rx="4" fill="rgba(245,158,11,0.12)" stroke="#f59e0b" stroke-width="1.8"/>
  <line x1="9" y1="37.5" x2="37" y2="37.5" stroke="#f59e0b" stroke-width="0.9" stroke-dasharray="3,2.5"/>
  <line x1="9" y1="30" x2="5" y2="32" stroke="#d97706" stroke-width="1.4"/>
  <line x1="37" y1="30" x2="41" y2="32" stroke="#d97706" stroke-width="1.4"/>
  <rect x="13" y="2" width="20" height="2" rx="1" fill="#f59e0b" opacity="0.7"/>
</svg>
